<svg xmlns="http://www.w3.org/2000/svg" width="2967" height="620" viewBox="0 0 2967 620" version="1.1"><path d="M 108.454 103.198 C 60.134 149.889, 30.874 207.625, 23.475 270.878 C 21.747 285.653, 21.551 311.990, 23.067 325.789 C 27.868 369.502, 44.640 411.973, 70.202 445.151 C 111.333 498.535, 173.915 531.939, 251.035 541.671 C 270.204 544.090, 314.601 544.062, 332.500 541.620 C 380.910 535.013, 417.646 519.826, 441.127 496.710 C 459.015 479.102, 467.355 461.620, 468.666 438.982 C 469.439 425.640, 467.402 414.622, 462.109 403.500 C 451.508 381.230, 431.975 368.313, 399.390 362.025 C 384.582 359.167, 364.359 357.305, 323 354.991 C 269.772 352.013, 248.477 349.369, 222.240 342.479 C 163.001 326.924, 123.349 291.329, 105.466 237.651 C 100.044 221.378, 97.985 209.684, 97.316 191.356 C 96.133 158.980, 101.301 137.094, 117.114 107.514 C 123.850 94.912, 124.761 92.085, 122.343 91.280 C 121.706 91.069, 115.457 96.431, 108.454 103.198 M 292.516 106.148 C 266.684 109.457, 239.557 121.288, 223.447 136.271 C 203.661 154.673, 198.339 176.327, 207.969 199.248 C 215.065 216.137, 228.670 227.076, 251.574 234.307 C 267.503 239.336, 287.269 242.096, 324.500 244.489 C 385.338 248.399, 407.704 250.700, 431.548 255.503 C 485.095 266.289, 524.645 288.237, 553.177 323 C 564.865 337.241, 573.091 353.033, 580.452 375.365 C 584.949 389.007, 587.635 395, 589.251 395 C 590.437 395, 593.457 387.530, 595.316 380 C 599.203 364.254, 599.927 346.414, 597.516 325.799 C 594.530 300.271, 588.929 280.724, 578.547 259.598 C 564.481 230.972, 546.077 206.794, 522.817 186.381 C 466.334 136.810, 406.112 111.249, 333.500 106.025 C 317.130 104.847, 302.322 104.891, 292.516 106.148" stroke="none" fill="#041552" fill-rule="evenodd"/><path d="M 292 0.997 C 215.327 5.547, 145.182 37.018, 91.131 91.119 C 1.141 181.192, -24.374 315.024, 26.016 432.655 C 64.240 521.885, 147.743 591.227, 242.590 612.499 C 268.610 618.335, 279.111 619.402, 310.500 619.402 C 341.903 619.402, 352.386 618.336, 378.461 612.488 C 454.915 595.340, 522.649 548.147, 566.460 481.500 C 609.822 415.535, 626.667 339.216, 614.896 262.055 C 596.887 144, 510.309 45.687, 395.173 12.550 C 363.111 3.322, 324.911 -0.955, 292 0.997 M 108.454 103.198 C 60.134 149.889, 30.874 207.625, 23.475 270.878 C 21.747 285.653, 21.551 311.990, 23.067 325.789 C 27.868 369.502, 44.640 411.973, 70.202 445.151 C 111.333 498.535, 173.915 531.939, 251.035 541.671 C 270.204 544.090, 314.601 544.062, 332.500 541.620 C 380.910 535.013, 417.646 519.826, 441.127 496.710 C 459.015 479.102, 467.355 461.620, 468.666 438.982 C 469.439 425.640, 467.402 414.622, 462.109 403.500 C 451.508 381.230, 431.975 368.313, 399.390 362.025 C 384.582 359.167, 364.359 357.305, 323 354.991 C 269.772 352.013, 248.477 349.369, 222.240 342.479 C 163.001 326.924, 123.349 291.329, 105.466 237.651 C 100.044 221.378, 97.985 209.684, 97.316 191.356 C 96.133 158.980, 101.301 137.094, 117.114 107.514 C 123.850 94.912, 124.761 92.085, 122.343 91.280 C 121.706 91.069, 115.457 96.431, 108.454 103.198 M 869.607 100.539 C 850.944 104.066, 840.506 109.506, 827.471 122.500 C 820.497 129.451, 817.607 133.207, 814.773 139 C 808.795 151.222, 806.632 160.595, 806.584 174.500 C 806.534 188.864, 807.762 194.510, 813.590 206.690 C 817.218 214.275, 819.434 217.333, 826.271 224.190 C 837.548 235.501, 852.605 244.308, 890 261.465 C 908.922 270.146, 917.377 275.511, 925.026 283.686 C 933.148 292.369, 936.218 299.050, 936.813 309.339 C 938.196 333.216, 924.933 351.081, 901 357.582 C 891.308 360.214, 869.308 360.044, 857.980 357.249 C 846.012 354.296, 833.991 349.747, 827.109 345.566 C 817.696 339.848, 817.317 340.030, 809.134 354.187 L 802.090 366.375 804.051 367.749 C 808.625 370.952, 822.245 377.081, 832.019 380.334 C 864.498 391.145, 904.717 391.272, 931.021 380.648 C 946.998 374.194, 961.532 361.364, 968.814 347.287 C 975.613 334.145, 977.328 326.251, 977.353 308 L 977.374 292.500 974.673 284.343 C 971.456 274.629, 966.366 266.690, 957.801 258.027 C 947.990 248.105, 939.774 243.270, 902 225.196 C 890.725 219.801, 878.125 213.418, 874 211.013 C 852.816 198.658, 843.459 180.371, 848.417 161.017 C 850.445 153.102, 854.359 146.843, 861.506 140.082 C 871.699 130.443, 881.633 127.471, 901 128.268 C 918.528 128.989, 934.120 133.791, 946.850 142.387 C 949.793 144.374, 952.960 146, 953.887 146 C 954.986 146, 958.063 141.743, 962.730 133.767 L 969.888 121.533 968.194 119.654 C 966.073 117.301, 946.684 107.979, 937.971 105.124 C 925.716 101.107, 917.071 99.915, 897 99.475 C 882.393 99.154, 875.519 99.421, 869.607 100.539 M 1600.217 109.281 L 1593.993 115.561 1594.246 250.031 L 1594.500 384.500 1608.750 384.777 C 1616.588 384.930, 1623.003 384.930, 1623.007 384.777 C 1623.055 382.771, 1627.084 361.583, 1627.496 361.171 C 1627.805 360.861, 1631.308 363.821, 1635.279 367.749 C 1643.961 376.333, 1651.842 381.231, 1662.282 384.529 C 1704.885 397.988, 1740.616 376.313, 1754.434 328.630 C 1761.787 303.258, 1761.790 263.805, 1754.441 238.365 C 1746.378 210.451, 1728 190.239, 1703.521 182.361 C 1692.586 178.842, 1675.878 178.035, 1663.942 180.448 C 1656.968 181.859, 1645.694 185.594, 1636.750 189.458 L 1635 190.214 1635 146.607 L 1635 103 1620.721 103 L 1606.442 103 1600.217 109.281 M 2356.247 243.750 L 2356.500 384.500 2435.250 384.756 L 2514 385.012 2514 370.506 L 2514 356 2455.500 356 L 2397 356 2397 304 L 2397 252 2443.500 252 L 2490 252 2490 237.500 L 2490 223 2443.500 223 L 2397 223 2397 177.500 L 2397 132 2455.500 132 L 2514 132 2514 117.500 L 2514 103 2434.997 103 L 2355.993 103 2356.247 243.750 M 2561.247 243.673 L 2561.500 384.500 2581.750 384.771 L 2602 385.041 2602 332.521 L 2602 280 2618.400 280 L 2634.801 280 2665.661 332.250 L 2696.521 384.500 2719.761 384.768 C 2732.542 384.916, 2742.986 384.691, 2742.968 384.268 C 2742.951 383.846, 2727.970 358.752, 2709.678 328.505 L 2676.420 273.510 2682.960 270.862 C 2716.956 257.098, 2732.535 229.169, 2730.708 185.262 C 2728.823 139.954, 2707.762 115.100, 2663 105.360 C 2656.850 104.021, 2646.997 103.648, 2608.247 103.287 L 2560.993 102.846 2561.247 243.673 M 2793 244 L 2793 385 2813 385 L 2833 385 2833 337 L 2833 289 2849.855 289 C 2900.751 289, 2922.600 282.693, 2943.032 262.105 C 2954.130 250.922, 2958.486 243.209, 2962.648 227.371 C 2966.143 214.070, 2967.099 187.302, 2964.603 172.658 C 2958.803 138.629, 2939.866 116.713, 2908.695 107.955 C 2893.562 103.703, 2883.934 103.038, 2837.250 103.018 L 2793 103 2793 244 M 292.516 106.148 C 266.684 109.457, 239.557 121.288, 223.447 136.271 C 203.661 154.673, 198.339 176.327, 207.969 199.248 C 215.065 216.137, 228.670 227.076, 251.574 234.307 C 267.503 239.336, 287.269 242.096, 324.500 244.489 C 385.338 248.399, 407.704 250.700, 431.548 255.503 C 485.095 266.289, 524.645 288.237, 553.177 323 C 564.865 337.241, 573.091 353.033, 580.452 375.365 C 584.949 389.007, 587.635 395, 589.251 395 C 590.437 395, 593.457 387.530, 595.316 380 C 599.203 364.254, 599.927 346.414, 597.516 325.799 C 594.530 300.271, 588.929 280.724, 578.547 259.598 C 564.481 230.972, 546.077 206.794, 522.817 186.381 C 466.334 136.810, 406.112 111.249, 333.500 106.025 C 317.130 104.847, 302.322 104.891, 292.516 106.148 M 2602 191.621 L 2602 251.242 2623.750 250.698 C 2647.568 250.103, 2651.961 249.399, 2662.750 244.453 C 2681.146 236.021, 2690.023 218.656, 2689.983 191.185 C 2689.934 158.736, 2677.734 140.709, 2651.234 133.932 C 2644.955 132.326, 2640.162 132, 2622.840 132 L 2602 132 2602 191.621 M 2833 195.615 L 2833 259.229 2856.750 258.720 C 2882.841 258.161, 2888.627 257.236, 2899.094 251.952 C 2907.438 247.740, 2913.126 242.192, 2917.361 234.132 C 2921.855 225.581, 2923.790 218.300, 2925.057 205.180 C 2927.672 178.106, 2920.007 152.782, 2906.112 142.582 C 2894.408 133.990, 2884.898 132, 2855.553 132 L 2833 132 2833 195.615 M 1079.360 180.476 C 1057.301 184.480, 1041.170 195.127, 1028.097 214.313 C 1016.921 230.714, 1011.621 253.016, 1011.655 283.500 C 1011.700 324.168, 1020.954 350.216, 1042.179 369.424 C 1068.411 393.163, 1118.254 395.121, 1148.417 373.597 C 1171.475 357.142, 1183.085 330.710, 1184.694 291 C 1186.417 248.507, 1175.505 216.119, 1153.176 197.446 C 1144.139 189.888, 1130.576 183.375, 1118.825 180.950 C 1107.913 178.699, 1090.319 178.487, 1079.360 180.476 M 1310.500 180.480 C 1296.763 183.504, 1285.143 189.899, 1274.640 200.217 C 1270.823 203.966, 1267.575 206.909, 1267.422 206.756 C 1267.270 206.603, 1266.430 202.208, 1265.557 196.989 C 1264.684 191.770, 1263.743 186.488, 1263.466 185.250 L 1262.962 183 1248.476 183 L 1233.990 183 1234.245 283.750 L 1234.500 384.500 1254.750 384.771 L 1275 385.041 1275 310.153 L 1275 235.265 1282.859 227.757 C 1298.594 212.724, 1310.979 209.399, 1333.967 214.038 C 1340.067 215.269, 1345.284 216.050, 1345.560 215.773 C 1346.644 214.689, 1352.077 183.678, 1351.313 182.937 C 1349.704 181.375, 1333.601 179.002, 1325.140 179.079 C 1320.388 179.123, 1313.800 179.753, 1310.500 180.480 M 1438.834 180.567 C 1403.894 186.889, 1380.589 213.007, 1373.472 253.820 C 1369.784 274.969, 1370.682 303.418, 1375.669 323.385 C 1383.580 355.062, 1403.590 377.337, 1430.947 384.918 C 1453.313 391.116, 1478.605 389.231, 1497.500 379.957 C 1521.846 368.009, 1536.817 346.022, 1542.430 313.974 C 1544.737 300.800, 1545.496 278.764, 1544.100 265.500 C 1539.009 217.127, 1515.911 188.206, 1476.162 180.435 C 1467.075 178.658, 1449.029 178.722, 1438.834 180.567 M 1856.785 180.914 C 1845.378 183.403, 1839.006 185.517, 1830.643 189.583 C 1822.033 193.771, 1812.015 200.183, 1812.025 201.500 C 1812.041 203.741, 1825.696 225.510, 1827.276 225.815 C 1828.212 225.995, 1832.990 223.459, 1837.894 220.179 C 1852.314 210.533, 1862.591 207.472, 1878.056 208.217 C 1886.141 208.606, 1888.770 209.176, 1894.112 211.701 C 1901.998 215.427, 1906.674 219.929, 1910.242 227.231 C 1914.432 235.805, 1916 243.287, 1916 254.710 L 1916 265 1893.724 265 C 1860.351 265, 1845.204 267.457, 1828.195 275.628 C 1807.859 285.397, 1797.681 302.394, 1797.731 326.500 C 1797.769 345.226, 1802.958 358.578, 1814.803 370.434 C 1827.124 382.766, 1842.532 388.276, 1864.500 388.208 C 1885.757 388.142, 1901.764 381.936, 1915.774 368.329 C 1919.924 364.298, 1923.605 361, 1923.952 361 C 1924.300 361, 1925.465 366.288, 1926.542 372.750 L 1928.500 384.500 1942.750 384.777 L 1957 385.055 1957 315.485 C 1957 240.339, 1956.858 237.994, 1951.511 224.835 C 1947.382 214.674, 1937.333 201.581, 1928.605 194.991 C 1922.017 190.017, 1909.153 183.618, 1901.500 181.507 C 1891.898 178.859, 1867.673 178.538, 1856.785 180.914 M 2091.500 180.418 C 2077.170 183.721, 2064.263 190.668, 2054.710 200.221 C 2050.909 204.022, 2047.668 206.990, 2047.508 206.816 C 2047.347 206.642, 2046.369 201.325, 2045.332 195 L 2043.448 183.500 2028.974 183.500 L 2014.500 183.500 2014.500 284 L 2014.500 384.500 2034.750 384.771 L 2055 385.041 2055 309.148 L 2055 233.254 2062.400 226.225 C 2067.657 221.232, 2072.339 217.937, 2078.572 214.848 L 2087.344 210.500 2097.922 210.500 C 2107.206 210.500, 2109.173 210.816, 2114.002 213.081 C 2121.034 216.380, 2128.620 223.966, 2131.919 230.998 L 2134.500 236.500 2135 310.500 L 2135.500 384.500 2155.750 384.771 L 2176 385.041 2176 310.968 C 2176 246.287, 2175.794 235.982, 2174.379 229.697 C 2169.271 207.026, 2153.314 189.402, 2131.500 182.340 C 2121.587 179.131, 2101.309 178.157, 2091.500 180.418 M 1086.286 209.396 C 1067.310 215.575, 1056.361 234.114, 1052.893 265.937 C 1051.497 278.750, 1052.276 301.274, 1054.517 312.910 C 1060.567 344.311, 1074.693 359.204, 1098.598 359.385 L 1107.696 359.455 1115.283 355.705 C 1135.089 345.916, 1143.988 323.532, 1143.988 283.500 C 1143.988 267.132, 1142.390 252.887, 1139.445 243 C 1135.207 228.769, 1125.871 216.530, 1115.316 211.366 C 1110.433 208.977, 1108.131 208.513, 1100.033 208.288 C 1093.971 208.120, 1088.966 208.523, 1086.286 209.396 M 1446.500 209.347 C 1422.402 217.321, 1410.482 245.646, 1412.348 290.500 C 1414.076 332.042, 1426.279 354.008, 1450.395 358.985 C 1459.038 360.769, 1467.622 359.555, 1476.001 355.363 C 1496.167 345.275, 1505.146 319.692, 1503.680 276.500 C 1502.713 247.999, 1497.804 231.936, 1486.409 219.989 C 1478.221 211.405, 1472.101 208.702, 1460 208.322 C 1454.015 208.134, 1449.020 208.513, 1446.500 209.347 M 1657 208.642 C 1652.967 209.392, 1643.839 211.990, 1639.250 213.694 L 1635 215.272 1635 274.462 L 1635 333.653 1642.750 341.190 C 1658.639 356.641, 1676.915 361.609, 1691.609 354.472 C 1701.257 349.786, 1710.309 337.698, 1714.429 324 C 1720.538 303.691, 1720.546 263.481, 1714.445 243 C 1710.161 228.615, 1700.995 216.600, 1690.301 211.348 L 1684.500 208.500 1672 208.339 C 1665.125 208.250, 1658.375 208.387, 1657 208.642 M 1863.760 296.558 C 1855.691 298.514, 1851.075 301.110, 1846.129 306.476 C 1839.987 313.139, 1838.596 316.946, 1838.626 327 C 1838.683 345.394, 1848.308 355.375, 1868.029 357.486 C 1882.117 358.995, 1896.227 353.528, 1908.614 341.762 L 1916 334.746 1916 314.873 L 1916 295 1892.750 295.083 C 1876.568 295.141, 1867.755 295.590, 1863.760 296.558 M 1888.415 473.250 C 1886.778 475.038, 1884.595 477.512, 1883.564 478.750 L 1881.690 481 1883.500 483 C 1884.495 484.100, 1885.756 485, 1886.302 485 C 1887.113 485, 1893.173 480.559, 1897.443 476.836 C 1898.316 476.075, 1893.487 470, 1892.009 470 C 1891.670 470, 1890.053 471.462, 1888.415 473.250 M 1229.147 474.606 C 1228.381 475.472, 1227.081 475.859, 1226.147 475.497 C 1225.241 475.145, 1222.400 474.607, 1219.834 474.300 C 1215.750 473.811, 1214.845 474.064, 1212.584 476.325 C 1209.370 479.539, 1209.353 480.530, 1212.474 482.575 L 1214.947 484.196 1216.603 482.540 C 1217.513 481.630, 1218.843 481.109, 1219.558 481.384 C 1222.618 482.558, 1228.172 483.174, 1230.481 482.594 C 1231.852 482.250, 1233.745 480.792, 1234.687 479.355 L 1236.399 476.742 1234.089 474.871 C 1231.333 472.640, 1230.906 472.617, 1229.147 474.606 M 998 488.314 C 993.147 489.852, 985.725 497.556, 984.222 502.616 C 982.403 508.741, 982.719 518.792, 984.879 523.500 C 989 532.485, 996.530 536.944, 1007.636 536.978 C 1022.185 537.023, 1031.120 528.749, 1031.836 514.569 C 1032.034 510.649, 1031.678 505.517, 1031.044 503.165 C 1029.625 497.894, 1023.837 491.296, 1018.500 488.866 C 1013.959 486.797, 1003.659 486.520, 998 488.314 M 1161.500 488.504 C 1156.114 490.410, 1149.458 497.586, 1147.978 503.083 C 1147.332 505.481, 1146.966 510.649, 1147.164 514.569 C 1147.456 520.354, 1148.086 522.603, 1150.512 526.521 C 1153.624 531.547, 1160.237 535.916, 1164.817 535.972 C 1166.703 535.995, 1167.012 536.387, 1166.477 538.073 C 1166.036 539.462, 1166.394 540.568, 1167.562 541.422 C 1170.030 543.226, 1168.467 545.037, 1164.693 544.746 L 1161.500 544.500 1161.187 547.750 L 1160.873 551 1166.002 551 C 1171.055 551, 1174.794 549.758, 1176.235 547.600 C 1177.496 545.712, 1177.069 541.302, 1175.500 540 C 1173.254 538.136, 1173.683 537, 1176.634 537 C 1180.421 537, 1187.129 534.828, 1187.666 533.427 C 1187.918 532.771, 1187.467 530.660, 1186.663 528.737 L 1185.203 525.240 1179.851 526.663 C 1165.123 530.579, 1155.593 521.669, 1158.876 507.055 C 1161.064 497.317, 1170.834 493.719, 1182.200 498.466 C 1183.510 499.013, 1184.255 498.325, 1185.450 495.466 C 1187.549 490.441, 1187.548 490.436, 1182.980 488.609 C 1178.017 486.623, 1166.966 486.569, 1161.500 488.504 M 1272 488.314 C 1267.147 489.852, 1259.725 497.556, 1258.222 502.616 C 1256.403 508.741, 1256.719 518.792, 1258.879 523.500 C 1263 532.485, 1270.530 536.944, 1281.636 536.978 C 1296.185 537.023, 1305.120 528.749, 1305.836 514.569 C 1306.034 510.649, 1305.678 505.517, 1305.044 503.165 C 1303.625 497.894, 1297.837 491.296, 1292.500 488.866 C 1287.959 486.797, 1277.659 486.520, 1272 488.314 M 1434.587 489.032 C 1429.145 491.748, 1427.423 493.509, 1424.522 499.331 C 1421.690 505.015, 1421.073 515.175, 1423.141 522.078 C 1424.707 527.303, 1429.547 532.890, 1434.429 535.107 C 1439.064 537.212, 1451.099 537.656, 1457.250 535.947 L 1461 534.906 1461 522.953 L 1461 511 1455.540 511 L 1450.081 511 1449.790 519.250 L 1449.500 527.500 1446.853 527.806 C 1442.636 528.295, 1437.328 525.528, 1435.383 521.829 C 1432.862 517.033, 1432.972 506.451, 1435.589 501.945 C 1438.518 496.903, 1444.324 495.204, 1451.656 497.245 L 1457.076 498.754 1458.569 495.180 C 1460.496 490.568, 1460.050 489.631, 1455.238 488.189 C 1449.097 486.349, 1439.150 486.755, 1434.587 489.032 M 1686.266 488.657 C 1681.137 490.473, 1674.828 497.293, 1673.176 502.807 C 1671.651 507.896, 1671.673 517.178, 1673.223 522.349 C 1674.946 528.102, 1681.411 534.512, 1687 536.011 C 1695.133 538.193, 1713 535.991, 1713 532.807 C 1713 532.328, 1712.371 530.429, 1711.601 528.588 L 1710.203 525.240 1704.851 526.663 C 1690.123 530.579, 1680.593 521.669, 1683.876 507.055 C 1686.064 497.317, 1695.834 493.719, 1707.200 498.466 C 1708.510 499.013, 1709.255 498.325, 1710.450 495.466 C 1712.549 490.441, 1712.548 490.436, 1707.980 488.609 C 1702.962 486.601, 1692.005 486.625, 1686.266 488.657 M 1737 488.314 C 1732.147 489.852, 1724.725 497.556, 1723.222 502.616 C 1721.403 508.741, 1721.719 518.792, 1723.879 523.500 C 1728 532.485, 1735.530 536.944, 1746.636 536.978 C 1761.185 537.023, 1770.120 528.749, 1770.836 514.569 C 1771.034 510.649, 1770.678 505.517, 1770.044 503.165 C 1768.625 497.894, 1762.837 491.296, 1757.500 488.866 C 1752.959 486.797, 1742.659 486.520, 1737 488.314 M 2012.266 488.657 C 2007.137 490.473, 2000.828 497.293, 1999.176 502.807 C 1997.651 507.896, 1997.673 517.178, 1999.223 522.349 C 2000.946 528.102, 2007.411 534.512, 2013 536.011 C 2021.133 538.193, 2039 535.991, 2039 532.807 C 2039 532.328, 2038.371 530.429, 2037.601 528.588 L 2036.203 525.240 2030.851 526.663 C 2016.123 530.579, 2006.593 521.669, 2009.876 507.055 C 2012.064 497.317, 2021.834 493.719, 2033.200 498.466 C 2034.510 499.013, 2035.255 498.325, 2036.450 495.466 C 2038.549 490.441, 2038.548 490.436, 2033.980 488.609 C 2028.962 486.601, 2018.005 486.625, 2012.266 488.657 M 2253 488.314 C 2248.147 489.852, 2240.725 497.556, 2239.222 502.616 C 2237.403 508.741, 2237.719 518.792, 2239.879 523.500 C 2244 532.485, 2251.530 536.944, 2262.636 536.978 C 2277.185 537.023, 2286.120 528.749, 2286.836 514.569 C 2287.034 510.649, 2286.678 505.517, 2286.044 503.165 C 2284.625 497.894, 2278.837 491.296, 2273.500 488.866 C 2268.959 486.797, 2258.659 486.520, 2253 488.314 M 2314.266 488.657 C 2309.137 490.473, 2302.828 497.293, 2301.176 502.807 C 2299.651 507.896, 2299.673 517.178, 2301.223 522.349 C 2302.946 528.102, 2309.411 534.512, 2315 536.011 C 2323.133 538.193, 2341 535.991, 2341 532.807 C 2341 532.328, 2340.371 530.429, 2339.601 528.588 L 2338.203 525.240 2332.851 526.663 C 2318.123 530.579, 2308.593 521.669, 2311.876 507.055 C 2314.064 497.317, 2323.834 493.719, 2335.200 498.466 C 2336.510 499.013, 2337.255 498.325, 2338.450 495.466 C 2340.549 490.441, 2340.548 490.436, 2335.980 488.609 C 2330.962 486.601, 2320.005 486.625, 2314.266 488.657 M 2365 488.314 C 2360.147 489.852, 2352.725 497.556, 2351.222 502.616 C 2349.403 508.741, 2349.719 518.792, 2351.879 523.500 C 2356 532.485, 2363.530 536.944, 2374.636 536.978 C 2389.185 537.023, 2398.120 528.749, 2398.836 514.569 C 2399.034 510.649, 2398.678 505.517, 2398.044 503.165 C 2396.625 497.894, 2390.837 491.296, 2385.500 488.866 C 2380.959 486.797, 2370.659 486.520, 2365 488.314 M 2503 488.314 C 2498.147 489.852, 2490.725 497.556, 2489.222 502.616 C 2487.403 508.741, 2487.719 518.792, 2489.879 523.500 C 2494 532.485, 2501.530 536.944, 2512.636 536.978 C 2527.185 537.023, 2536.120 528.749, 2536.836 514.569 C 2537.034 510.649, 2536.678 505.517, 2536.044 503.165 C 2534.625 497.894, 2528.837 491.296, 2523.500 488.866 C 2518.959 486.797, 2508.659 486.520, 2503 488.314 M 2580.266 488.657 C 2575.137 490.473, 2568.828 497.293, 2567.176 502.807 C 2565.651 507.896, 2565.673 517.178, 2567.223 522.349 C 2568.946 528.102, 2575.411 534.512, 2581 536.011 C 2589.133 538.193, 2607 535.991, 2607 532.807 C 2607 532.328, 2606.371 530.429, 2605.601 528.588 L 2604.203 525.240 2598.851 526.663 C 2584.123 530.579, 2574.593 521.669, 2577.876 507.055 C 2580.064 497.317, 2589.834 493.719, 2601.200 498.466 C 2602.510 499.013, 2603.255 498.325, 2604.450 495.466 C 2606.549 490.441, 2606.548 490.436, 2601.980 488.609 C 2596.962 486.601, 2586.005 486.625, 2580.266 488.657 M 881 512 L 881 536 898 536 L 915 536 915 531.500 L 915 527 903.500 527 L 892 527 892 521 L 892 515 901.500 515 L 911 515 911 510.500 L 911 506 901.500 506 L 892 506 892 501.500 L 892 497 902.500 497 L 913 497 913 492.500 L 913 488 897 488 L 881 488 881 512 M 926 488.375 C 926 488.636, 930.088 498.671, 935.085 510.675 C 940.082 522.679, 944.409 533.288, 944.702 534.250 C 945.120 535.629, 946.354 536, 950.519 536 L 955.804 536 956.824 533.250 C 957.385 531.737, 961.704 521.105, 966.422 509.623 C 971.140 498.140, 975 488.555, 975 488.323 C 975 488.090, 972.469 488.035, 969.376 488.200 L 963.752 488.500 957.328 504.965 C 953.794 514.021, 950.769 521.565, 950.604 521.730 C 950.439 521.894, 947.356 514.485, 943.753 505.265 L 937.202 488.500 931.601 488.200 C 928.520 488.035, 926 488.114, 926 488.375 M 1048 512 L 1048 536 1064 536 L 1080 536 1080 531.500 L 1080 527 1069.500 527 L 1059 527 1059 507.500 L 1059 488 1053.500 488 L 1048 488 1048 512 M 1094.191 507.430 L 1094.500 526.860 1096.562 529.618 C 1100.450 534.820, 1103.603 536.412, 1110.822 536.820 C 1119.195 537.293, 1123.688 535.586, 1127.618 530.437 L 1130.500 526.662 1130.809 507.331 L 1131.119 488 1125.559 488 L 1120 488 1119.994 503.250 C 1119.991 511.637, 1119.534 520.136, 1118.979 522.135 C 1117.753 526.550, 1113.841 528.650, 1109.744 527.093 C 1105.946 525.649, 1105.012 520.950, 1105.006 503.250 L 1105 488 1099.441 488 L 1093.881 488 1094.191 507.430 M 1212.435 499.250 C 1208.286 509.071, 1199 534.193, 1199 535.598 C 1199 535.874, 1201.567 535.965, 1204.705 535.800 L 1210.409 535.500 1211.891 530.716 L 1213.372 525.932 1222.910 526.216 L 1232.448 526.500 1234.103 531 L 1235.759 535.500 1241.379 535.800 C 1244.471 535.965, 1247 535.858, 1247 535.563 C 1247 534.181, 1238.365 512.273, 1233.299 500.803 L 1227.645 488 1222.416 488 L 1217.188 488 1212.435 499.250 M 1339.250 488.662 C 1338.300 489.046, 1338 494.782, 1338 512.564 L 1338 535.962 1340.517 536.594 C 1341.902 536.941, 1347.643 537.055, 1353.275 536.847 L 1363.514 536.467 1369.007 533.368 C 1376.443 529.173, 1380 522.665, 1380 513.252 C 1380 504.485, 1378.270 499.270, 1373.917 494.917 C 1368.745 489.745, 1362.731 487.984, 1350.572 488.079 C 1345.032 488.122, 1339.938 488.385, 1339.250 488.662 M 1396 512 L 1396 536 1401.500 536 L 1407 536 1407 512 L 1407 488 1401.500 488 L 1396 488 1396 512 M 1481 512 L 1481 536 1486.500 536 L 1492 536 1492 512 L 1492 488 1486.500 488 L 1481 488 1481 512 M 1506 492.500 L 1506 497 1513 497 L 1520 497 1520 516.500 L 1520 536 1525.500 536 L 1531 536 1531 516.500 L 1531 497 1538 497 L 1545 497 1545 492.500 L 1545 488 1525.500 488 L 1506 488 1506 492.500 M 1563.435 499.250 C 1559.286 509.071, 1550 534.193, 1550 535.598 C 1550 535.874, 1552.567 535.965, 1555.705 535.800 L 1561.409 535.500 1562.891 530.716 L 1564.372 525.932 1573.910 526.216 L 1583.448 526.500 1585.103 531 L 1586.759 535.500 1592.379 535.800 C 1595.471 535.965, 1598 535.858, 1598 535.563 C 1598 534.181, 1589.365 512.273, 1584.299 500.803 L 1578.645 488 1573.416 488 L 1568.188 488 1563.435 499.250 M 1612 512 L 1612 536 1628 536 L 1644 536 1644 531.500 L 1644 527 1633.500 527 L 1623 527 1623 507.500 L 1623 488 1617.500 488 L 1612 488 1612 512 M 1788.525 489.250 C 1787.845 491.308, 1786.073 510.649, 1785.364 523.750 L 1784.700 536 1790.225 536 L 1795.750 536 1796.375 532.875 C 1796.719 531.156, 1797.032 525.419, 1797.070 520.125 C 1797.178 505.340, 1797.843 505.163, 1803.371 518.447 L 1808.178 530 1812.339 529.999 L 1816.500 529.998 1820.995 518.521 C 1826.145 505.370, 1826.823 505.553, 1826.930 520.125 C 1826.968 525.419, 1827.281 531.156, 1827.625 532.875 L 1828.250 536 1833.760 536 L 1839.270 536 1838.552 522.750 C 1838.158 515.462, 1837.310 504.775, 1836.667 499 L 1835.500 488.500 1829.863 488.203 L 1824.227 487.907 1819.694 498.703 C 1817.201 504.642, 1814.554 511.014, 1813.812 512.865 L 1812.463 516.230 1810.070 510.365 C 1808.753 507.139, 1805.978 500.788, 1803.902 496.250 L 1800.129 488 1794.533 488 C 1790.943 488, 1788.789 488.448, 1788.525 489.250 M 1873 512 L 1873 536 1890 536 L 1907 536 1907 531.500 L 1907 527 1895.500 527 L 1884 527 1884 521 L 1884 515 1893.500 515 L 1903 515 1903 510.500 L 1903 506 1893.500 506 L 1884 506 1884 501.500 L 1884 497 1894.500 497 L 1905 497 1905 492.500 L 1905 488 1889 488 L 1873 488 1873 512 M 1917 492.500 L 1917 497 1924 497 L 1931 497 1931 516.500 L 1931 536 1936.500 536 L 1942 536 1942 516.500 L 1942 497 1949 497 L 1956 497 1956 492.500 L 1956 488 1936.500 488 L 1917 488 1917 492.500 M 1972 512 L 1972 536 1977.500 536 L 1983 536 1983 512 L 1983 488 1977.500 488 L 1972 488 1972 512 M 2063.435 499.250 C 2059.286 509.071, 2050 534.193, 2050 535.598 C 2050 535.874, 2052.567 535.965, 2055.705 535.800 L 2061.409 535.500 2062.891 530.716 L 2064.372 525.932 2073.910 526.216 L 2083.448 526.500 2085.103 531 L 2086.759 535.500 2092.379 535.800 C 2095.471 535.965, 2098 535.858, 2098 535.563 C 2098 534.181, 2089.365 512.273, 2084.299 500.803 L 2078.645 488 2073.416 488 L 2068.188 488 2063.435 499.250 M 2129 512 L 2129 536 2146 536 L 2163 536 2163 531.500 L 2163 527 2151.500 527 L 2140 527 2140 521 L 2140 515 2149.500 515 L 2159 515 2159 510.500 L 2159 506 2149.500 506 L 2140 506 2140 501.500 L 2140 497 2150.500 497 L 2161 497 2161 492.500 L 2161 488 2145 488 L 2129 488 2129 512 M 2194 512 L 2194 536 2199.500 536 L 2205 536 2205 526 L 2205 516 2214.500 516 L 2224 516 2224 511.500 L 2224 507 2214.500 507 L 2205 507 2205 502 L 2205 497 2215.500 497 L 2226 497 2226 492.500 L 2226 488 2210 488 L 2194 488 2194 512 M 2431 512 L 2431 536 2436.474 536 L 2441.948 536 2442.224 520.750 L 2442.500 505.500 2448.704 514.789 C 2452.116 519.898, 2456.382 526.760, 2458.185 530.039 L 2461.462 536 2466.231 536 L 2471 536 2471 512 L 2471 488 2465.500 488 L 2460 488 2460 501.701 L 2460 515.401 2451.927 503.451 C 2441.246 487.641, 2441.620 488, 2435.845 488 L 2431 488 2431 512 M 2622 512 L 2622 536 2638 536 L 2654 536 2654 531.500 L 2654 527 2643.500 527 L 2633 527 2633 507.500 L 2633 488 2627.500 488 L 2622 488 2622 512 M 2668 512 L 2668 536 2673.500 536 L 2679 536 2679 512 L 2679 488 2673.500 488 L 2668 488 2668 512 M 2697 512 L 2697 536 2714 536 L 2731 536 2731 531.500 L 2731 527 2719.500 527 L 2708 527 2708 521 L 2708 515 2717.500 515 L 2727 515 2727 510.500 L 2727 506 2717.500 506 L 2708 506 2708 501.500 L 2708 497 2718.500 497 L 2729 497 2729 492.500 L 2729 488 2713 488 L 2697 488 2697 512 M 2746 512 L 2746 536 2751.474 536 L 2756.948 536 2757.224 520.750 L 2757.500 505.500 2763.704 514.789 C 2767.116 519.898, 2771.382 526.760, 2773.185 530.039 L 2776.462 536 2781.231 536 L 2786 536 2786 512 L 2786 488 2780.500 488 L 2775 488 2775 501.701 L 2775 515.401 2766.927 503.451 C 2756.246 487.641, 2756.620 488, 2750.845 488 L 2746 488 2746 512 M 2801 492.500 L 2801 497 2808 497 L 2815 497 2815 516.500 L 2815 536 2820.500 536 L 2826 536 2826 516.500 L 2826 497 2833 497 L 2840 497 2840 492.500 L 2840 488 2820.500 488 L 2801 488 2801 492.500 M 2856 512 L 2856 536 2873 536 L 2890 536 2890 531.500 L 2890 527 2878.500 527 L 2867 527 2867 521 L 2867 515 2876.500 515 L 2886 515 2886 510.500 L 2886 506 2876.500 506 L 2867 506 2867 501.500 L 2867 497 2877.500 497 L 2888 497 2888 492.500 L 2888 488 2872 488 L 2856 488 2856 512 M 1002.034 497.702 C 997.138 500.242, 994.527 505.233, 994.560 511.992 C 994.606 521.689, 999.455 527.500, 1007.500 527.500 C 1015.554 527.500, 1020.414 521.666, 1020.414 512 C 1020.414 508.975, 1019.758 505.190, 1018.957 503.590 C 1015.757 497.198, 1008.125 494.542, 1002.034 497.702 M 1276.034 497.702 C 1271.138 500.242, 1268.527 505.233, 1268.560 511.992 C 1268.606 521.689, 1273.455 527.500, 1281.500 527.500 C 1289.554 527.500, 1294.414 521.666, 1294.414 512 C 1294.414 508.975, 1293.758 505.190, 1292.957 503.590 C 1289.757 497.198, 1282.125 494.542, 1276.034 497.702 M 1741.034 497.702 C 1736.138 500.242, 1733.527 505.233, 1733.560 511.992 C 1733.606 521.689, 1738.455 527.500, 1746.500 527.500 C 1754.554 527.500, 1759.414 521.666, 1759.414 512 C 1759.414 508.975, 1758.758 505.190, 1757.957 503.590 C 1754.757 497.198, 1747.125 494.542, 1741.034 497.702 M 2257.034 497.702 C 2252.138 500.242, 2249.527 505.233, 2249.560 511.992 C 2249.606 521.689, 2254.455 527.500, 2262.500 527.500 C 2270.554 527.500, 2275.414 521.666, 2275.414 512 C 2275.414 508.975, 2274.758 505.190, 2273.957 503.590 C 2270.757 497.198, 2263.125 494.542, 2257.034 497.702 M 2369.034 497.702 C 2364.138 500.242, 2361.527 505.233, 2361.560 511.992 C 2361.606 521.689, 2366.455 527.500, 2374.500 527.500 C 2382.554 527.500, 2387.414 521.666, 2387.414 512 C 2387.414 508.975, 2386.758 505.190, 2385.957 503.590 C 2382.757 497.198, 2375.125 494.542, 2369.034 497.702 M 2507.034 497.702 C 2502.138 500.242, 2499.527 505.233, 2499.560 511.992 C 2499.606 521.689, 2504.455 527.500, 2512.500 527.500 C 2520.554 527.500, 2525.414 521.666, 2525.414 512 C 2525.414 508.975, 2524.758 505.190, 2523.957 503.590 C 2520.757 497.198, 2513.125 494.542, 2507.034 497.702 M 1349.750 497.575 C 1349.338 497.992, 1349 505.070, 1349 513.304 L 1349 528.275 1354.750 527.618 C 1364.439 526.510, 1368.455 521.850, 1368.369 511.818 C 1368.316 505.765, 1366.634 502.109, 1362.736 499.574 C 1360.144 497.888, 1350.855 496.458, 1349.750 497.575 M 1219.706 507.799 C 1218.207 512.034, 1216.985 515.837, 1216.990 516.250 C 1216.996 516.663, 1219.689 517, 1222.975 517 L 1228.950 517 1225.917 508.776 C 1224.250 504.253, 1222.783 500.450, 1222.658 500.325 C 1222.533 500.200, 1221.205 503.563, 1219.706 507.799 M 1570.706 507.799 C 1569.207 512.034, 1567.985 515.837, 1567.990 516.250 C 1567.996 516.663, 1570.689 517, 1573.975 517 L 1579.950 517 1576.917 508.776 C 1575.250 504.253, 1573.783 500.450, 1573.658 500.325 C 1573.533 500.200, 1572.205 503.563, 1570.706 507.799 M 2070.706 507.799 C 2069.207 512.034, 2067.985 515.837, 2067.990 516.250 C 2067.996 516.663, 2070.689 517, 2073.975 517 L 2079.950 517 2076.917 508.776 C 2075.250 504.253, 2073.783 500.450, 2073.658 500.325 C 2073.533 500.200, 2072.205 503.563, 2070.706 507.799" stroke="none" fill="#eaeaee" fill-rule="evenodd"/></svg>